<svg xmlns="http://www.w3.org/2000/svg" viewBox="0 0 480 280" width="480" height="280" fill="none" aria-hidden="true">
  <rect width="480" height="280" fill="#f4f1ec"/>
  <rect x="412" y="44" width="48" height="58" rx="3" fill="#dde8e5" stroke="#8fa9a3" stroke-width="1.25"/>
  <rect x="418" y="50" width="36" height="44" rx="1" fill="#c5d5d1" opacity="0.65"/>
  <path d="M28 206V176" stroke="#5a7a62" stroke-width="2" stroke-linecap="round"/>
  <ellipse cx="28" cy="168" rx="14" ry="20" fill="#7d9c82"/>
  <rect x="12" y="206" width="36" height="28" rx="2" fill="#ebe6df" stroke="#cfc8be" stroke-width="1"/>
  <rect x="118" y="200" width="286" height="9" fill="#fff" stroke="#d4cfc7" stroke-width="1"/>
  <line x1="124" y1="200" x2="124" y2="254" stroke="#2d3436" stroke-width="2.2" stroke-linecap="round"/>
  <line x1="398" y1="200" x2="398" y2="254" stroke="#2d3436" stroke-width="2.2" stroke-linecap="round"/>
  <path d="M86 172c-2-22 12-38 30-36 8 1 14 8 16 18l2 46H96l-2-40z" fill="#2d3436"/>
  <path d="M132 154l8-2v48h-8" stroke="#2d3436" stroke-width="5" stroke-linecap="round"/>
  <rect x="272" y="76" width="102" height="70" rx="4" fill="#fff" stroke="#2d3436" stroke-width="1.5"/>
  <rect x="276" y="80" width="94" height="58" rx="2" fill="#eef2f1" stroke="#2d3436" stroke-width="1"/>
  <line x1="323" y1="148" x2="323" y2="180" stroke="#2d3436" stroke-width="2"/>
  <rect x="312" y="180" width="22" height="5" rx="1" fill="#2d3436"/>
  <rect x="316" y="68" width="14" height="10" rx="3" fill="#2d3436"/>
  <rect x="188" y="190" width="76" height="12" rx="2" fill="#fff" stroke="#c4bdb2" stroke-width="1"/>
  <!-- Aviso discreto na tela -->
  <rect x="286" y="92" width="76" height="36" rx="4" fill="#fff" stroke="#c9a227" stroke-width="1.8" opacity="0.95"/>
  <circle cx="300" cy="108" r="5" fill="#c9a227" opacity="0.35"/>
  <line x1="312" y1="106" x2="350" y2="106" stroke="#b8b3ab" stroke-width="3" stroke-linecap="round"/>
  <line x1="312" y1="116" x2="338" y2="116" stroke="#d4cfc7" stroke-width="3" stroke-linecap="round"/>
  <!-- Boneco: leve escorregada (entre ereto e curvado) -->
  <path d="M170 205v-8l8-78c6-18 22-28 40-24 12 2 20 12 22 26l6 52c2 20-8 34-24 38" fill="#0d7377" stroke="#0a5c5c" stroke-width="1"/>
  <path d="M196 94c16-6 32 2 38 16 2 8-2 18-10 24" fill="#0d7377"/>
  <ellipse cx="228" cy="94" rx="17" ry="18" fill="#e8dfd4" stroke="#2d3436" stroke-width="1"/>
  <path d="M210 80c8-8 26-8 36 2 5 4 8 11 6 18" fill="#2d3436"/>
  <circle cx="234" cy="94" r="2.2" fill="#2d3436"/>
  <!-- Indicador sutil do app na webcam -->
  <circle cx="323" cy="73" r="10" stroke="#c9a227" stroke-width="1.5" stroke-dasharray="3 2" fill="none"/>
</svg>
