<svg xmlns="http://www.w3.org/2000/svg" viewBox="0 0 480 280" width="480" height="280" fill="none" aria-hidden="true">
  <rect width="480" height="280" fill="#f4f1ec"/>
  <rect x="412" y="44" width="48" height="58" rx="3" fill="#dde8e5" stroke="#8fa9a3" stroke-width="1.25"/>
  <rect x="418" y="50" width="36" height="44" rx="1" fill="#c5d5d1" opacity="0.65"/>
  <path d="M28 206V176" stroke="#5a7a62" stroke-width="2" stroke-linecap="round"/>
  <ellipse cx="28" cy="168" rx="14" ry="20" fill="#7d9c82"/>
  <rect x="12" y="206" width="36" height="28" rx="2" fill="#ebe6df" stroke="#cfc8be" stroke-width="1"/>
  <rect x="118" y="200" width="286" height="9" fill="#fff" stroke="#d4cfc7" stroke-width="1"/>
  <line x1="124" y1="200" x2="124" y2="254" stroke="#2d3436" stroke-width="2.2" stroke-linecap="round"/>
  <line x1="398" y1="200" x2="398" y2="254" stroke="#2d3436" stroke-width="2.2" stroke-linecap="round"/>
  <path d="M86 172c-2-22 12-38 30-36 8 1 14 8 16 18l2 46H96l-2-40z" fill="#2d3436"/>
  <path d="M132 154l8-2v48h-8" stroke="#2d3436" stroke-width="5" stroke-linecap="round"/>
  <rect x="272" y="76" width="102" height="70" rx="4" fill="#fff" stroke="#2d3436" stroke-width="1.5"/>
  <rect x="276" y="80" width="94" height="58" rx="2" fill="#eef2f1" stroke="#2d3436" stroke-width="1"/>
  <line x1="323" y1="148" x2="323" y2="180" stroke="#2d3436" stroke-width="2"/>
  <rect x="312" y="180" width="22" height="5" rx="1" fill="#2d3436"/>
  <rect x="316" y="68" width="14" height="10" rx="3" fill="#2d3436"/>
  <rect x="188" y="190" width="76" height="12" rx="2" fill="#fff" stroke="#c4bdb2" stroke-width="1"/>
  <!-- Screen: positive trend -->
  <path d="M288 124 L302 118 L318 122 L332 112 L348 108" stroke="#4a9d6f" stroke-width="2.2" stroke-linecap="round" stroke-linejoin="round" fill="none"/>
  <circle cx="348" cy="108" r="4" fill="#4a9d6f" opacity="0.9"/>
  <path d="M284 128h72" stroke="#b8c5c0" stroke-width="1" opacity="0.8"/>
  <!-- Figure: upright posture, happy expression -->
  <path d="M172 205V118c2-20 18-32 38-30 12 1 20 8 24 20l10 97" fill="#0d7377" stroke="#0a5c5c" stroke-width="1"/>
  <path d="M198 104h48c8 0 14 6 14 14v24l-8 48" fill="#0d7377"/>
  <ellipse cx="234" cy="94" rx="17" ry="18" fill="#e8dfd4" stroke="#2d3436" stroke-width="1"/>
  <path d="M218 80c10-10 28-10 40 0 6 5 8 14 4 22l-4 2" fill="#2d3436"/>
  <circle cx="242" cy="93" r="2.2" fill="#2d3436"/>
  <path d="M239 91c1.5-0.5 3-0.5 4.5 0" stroke="#2d3436" stroke-width="1" stroke-linecap="round"/>
  <path d="M226 100c5 7 14 9 22 4 4-2 7-6 8-10" stroke="#2d3436" stroke-width="1.35" stroke-linecap="round" fill="none"/>
  <line x1="182" y1="118" x2="182" y2="198" stroke="#4a9d6f" stroke-width="1.6" stroke-dasharray="6 5" stroke-linecap="round" opacity="0.75"/>
  <circle cx="323" cy="73" r="11" stroke="#4a9d6f" stroke-width="1.5" stroke-dasharray="4 3" fill="none" opacity="0.85"/>
</svg>
